<?xml version="1.0" standalone="no"?>
<!DOCTYPE svg PUBLIC "-//W3C//DTD SVG 20010904//EN"
 "http://www.w3.org/TR/2001/REC-SVG-20010904/DTD/svg10.dtd">
<svg version="1.0" xmlns="http://www.w3.org/2000/svg"
 width="1261.000000pt" height="1280.000000pt" viewBox="0 0 1261.000000 1280.000000"
 preserveAspectRatio="xMidYMid meet">
<g transform="translate(0.000000,1280.000000) scale(0.100000,-0.100000)"
fill="#000000" stroke="none">
<path d="M8789 12796 c-2 -2 -58 -12 -124 -21 -210 -30 -352 -80 -535 -188
-188 -111 -399 -300 -551 -493 -35 -45 -77 -97 -92 -115 l-28 -34 6 34 c3 19
48 141 99 270 52 130 93 237 91 240 -8 7 -216 -151 -293 -224 -136 -128 -243
-309 -299 -508 -15 -53 -31 -97 -36 -97 -19 0 17 487 48 670 20 114 19 121
-11 85 -72 -86 -183 -268 -222 -365 -24 -58 -49 -118 -57 -135 l-14 -30 0 30
c-1 43 42 215 79 315 17 47 58 136 91 199 32 63 57 116 55 118 -7 7 -104 -78
-158 -140 -188 -213 -301 -448 -355 -740 -18 -99 -25 -463 -10 -544 6 -37 4
-44 -14 -54 -17 -8 -24 -8 -35 3 -40 40 -124 526 -124 720 0 76 -13 73 -57
-14 -95 -187 -126 -537 -67 -773 36 -149 110 -353 170 -471 35 -70 63 -129 61
-131 -8 -7 -65 65 -201 257 -147 204 -232 353 -292 510 l-29 75 -8 -90 c-10
-114 -1 -349 19 -485 27 -188 121 -424 244 -615 41 -63 59 -100 53 -106 -10
-10 -28 11 -187 211 -37 47 -139 193 -228 325 -88 132 -167 247 -174 255 -12
12 -14 12 -14 -5 0 -49 63 -325 100 -437 49 -151 185 -427 281 -574 113 -172
249 -336 417 -502 85 -84 152 -155 149 -159 -8 -7 -207 95 -310 158 -175 109
-348 259 -444 387 -63 84 -136 219 -173 321 -13 36 -26 59 -28 53 -8 -25 50
-326 79 -410 78 -222 222 -425 493 -693 82 -82 147 -152 142 -156 -18 -18
-309 109 -433 189 -99 65 -173 132 -248 225 -62 78 -120 131 -131 120 -9 -9
16 -116 47 -201 117 -323 378 -576 857 -831 141 -75 166 -102 84 -92 -171 20
-449 167 -872 460 -69 48 -130 87 -137 87 -55 0 77 -209 216 -343 181 -174
310 -242 930 -489 180 -72 182 -83 13 -75 -331 17 -750 -36 -1131 -144 -167
-48 -199 -47 -270 5 -117 85 -183 101 -393 93 -87 -4 -158 -3 -158 2 0 4 15
27 33 51 17 24 38 51 45 60 10 14 9 21 -8 43 -40 51 -122 101 -219 133 -96 32
-116 49 -86 74 23 19 18 53 -12 82 -40 37 -85 57 -166 74 -39 9 -74 18 -77 20
-3 3 10 19 28 35 39 35 40 48 5 81 -55 52 -191 63 -328 28 -43 -11 -80 -20
-82 -20 -1 0 -3 49 -3 109 0 293 -102 542 -335 820 -92 109 -238 248 -317 300
-106 71 -210 98 -268 68 -54 -27 -80 -90 -106 -250 -24 -151 -30 -158 -63 -69
-67 184 -261 356 -450 398 -108 24 -209 16 -296 -24 -129 -61 -271 -236 -323
-399 -13 -37 -40 -141 -61 -231 -47 -194 -76 -250 -203 -390 -69 -77 -88 -92
-113 -92 -47 0 -213 -62 -290 -107 -214 -126 -377 -327 -550 -678 -166 -336
-251 -603 -307 -960 -16 -102 -21 -196 -25 -435 -4 -231 -9 -311 -19 -332 -8
-14 -23 -84 -34 -154 -11 -70 -26 -134 -32 -141 -9 -11 -2 -24 33 -59 24 -25
62 -55 84 -66 57 -30 167 -36 238 -13 l56 17 63 -39 c245 -155 508 -230 868
-248 129 -7 445 7 654 29 106 10 122 10 155 -5 83 -39 114 -156 71 -274 -12
-33 -27 -79 -34 -102 -6 -23 -14 -44 -17 -47 -3 -3 -63 10 -134 29 -295 79
-520 116 -656 108 -52 -3 -124 1 -190 11 -153 23 -396 21 -543 -4 -262 -45
-414 -145 -461 -304 -20 -67 -19 -127 5 -222 l21 -80 -24 -55 c-27 -61 -47
-143 -47 -195 0 -27 9 -45 44 -82 24 -26 47 -57 50 -69 10 -31 63 -73 92 -73
16 0 28 -9 39 -30 17 -32 35 -40 35 -15 0 21 24 19 44 -4 11 -12 14 -21 7 -26
-22 -13 -10 -24 47 -45 47 -18 77 -21 172 -20 63 0 142 -2 175 -5 46 -5 96 1
214 24 84 17 183 34 220 37 85 8 194 -9 286 -45 86 -33 305 -174 305 -196 0
-9 40 -34 103 -64 136 -66 263 -146 284 -179 55 -86 81 -108 155 -130 128 -37
236 -52 364 -52 l124 0 49 -33 c90 -63 263 -73 531 -33 96 14 219 29 273 32
83 6 97 5 97 -8 0 -9 -7 -21 -15 -28 -8 -7 -15 -21 -15 -30 0 -22 67 -80 92
-80 29 0 29 -16 0 -76 -25 -55 -27 -67 -26 -194 0 -152 18 -240 86 -438 153
-447 508 -926 903 -1222 44 -33 83 -60 88 -60 4 0 7 -6 7 -14 0 -10 -32 -12
-167 -10 -93 2 -276 6 -408 8 -152 3 -277 11 -340 21 -109 18 -158 15 -250
-16 -131 -43 -196 -123 -203 -251 -4 -55 0 -73 17 -101 21 -34 92 -79 144 -91
22 -5 27 -12 27 -35 0 -44 9 -60 43 -78 39 -20 167 -22 230 -4 l48 14 33 -39
c34 -39 34 -39 109 -39 64 0 80 4 108 24 26 19 35 22 48 12 92 -67 127 -68
262 -6 196 90 268 107 580 135 119 11 261 29 315 39 55 11 166 34 249 51 152
31 424 69 662 91 120 11 134 11 158 -5 14 -10 25 -23 23 -29 -6 -17 -149 -64
-254 -82 -58 -11 -195 -19 -394 -25 -325 -9 -358 -13 -446 -65 -90 -53 -118
-184 -74 -346 11 -41 25 -96 30 -122 22 -110 103 -154 195 -107 42 21 75 26
75 11 0 -23 169 -101 217 -101 26 0 97 33 125 58 16 14 23 13 69 -1 70 -23
108 -21 163 8 l46 25 32 -30 c61 -59 126 -33 259 105 59 61 106 100 133 110
57 24 183 29 366 16 183 -12 263 -6 523 43 100 19 238 44 307 55 69 11 224 36
345 56 214 34 390 75 497 115 29 10 82 24 118 30 92 16 200 57 233 88 61 58
56 144 -19 307 -74 159 -86 201 -87 290 -1 96 22 198 66 286 38 76 17 70 337
94 645 48 987 120 1296 271 281 137 477 319 604 558 22 42 40 83 40 91 0 8
-10 21 -22 29 -19 14 -24 14 -38 1 -9 -8 -23 -15 -31 -15 -8 0 -49 -11 -92
-25 -123 -40 -129 -30 -29 43 204 148 342 290 432 442 88 149 144 376 109 442
-9 17 3 34 113 146 68 70 152 162 186 204 150 185 280 417 342 608 43 133 72
309 64 387 l-6 63 -77 -68 c-139 -124 -276 -219 -430 -296 -123 -63 -117 -40
19 69 335 266 444 413 525 710 27 97 68 325 61 333 -6 5 -269 -144 -492 -278
-175 -106 -243 -144 -250 -137 -3 2 19 24 48 47 91 74 198 183 237 240 61 88
156 269 186 350 21 58 28 99 32 186 6 127 -5 205 -49 343 -49 155 -62 158
-114 24 -101 -266 -148 -373 -189 -435 -42 -64 -74 -90 -62 -50 97 303 111
389 104 637 -7 251 -49 476 -134 715 -36 100 -38 103 -44 70 -4 -19 -12 -98
-19 -175 -12 -156 -31 -273 -61 -385 -25 -95 -59 -180 -70 -180 -5 0 -9 57 -9
128 0 263 -64 509 -259 995 -115 287 -108 283 -103 57 3 -131 1 -195 -6 -202
-8 -8 -14 -3 -22 18 -22 55 -219 690 -236 757 -9 37 -19 66 -21 63 -13 -12
-66 -303 -93 -504 -22 -169 -29 -202 -40 -202 -10 0 -20 52 -20 109 0 141 -62
428 -142 659 -52 152 -52 153 -71 115 -15 -29 -74 -174 -111 -275 -10 -27 -21
-48 -25 -48 -5 0 -22 29 -39 63 -18 35 -50 85 -73 111 -45 50 -153 130 -170
124 -6 -2 -20 -28 -32 -58 -12 -30 -26 -54 -32 -52 -5 1 -11 42 -13 91 -2 80
-5 92 -29 117 l-25 28 -70 -77 c-38 -42 -76 -77 -83 -77 -7 0 -16 17 -20 38
-11 58 -54 141 -96 183 -59 59 -127 70 -221 34 -16 -7 -108 62 -108 81 0 7 23
37 51 68 42 46 49 58 40 74 -15 29 -60 64 -109 86 -23 10 -42 26 -42 34 0 7
29 47 65 87 36 40 65 77 65 83 0 11 -27 34 -136 117 -39 30 -74 61 -77 69 -4
9 13 26 49 50 30 20 58 44 61 54 4 10 -14 57 -49 124 -33 62 -53 110 -47 114
6 3 38 4 71 2 62 -3 62 -3 68 27 23 109 96 156 208 135 119 -21 244 -99 411
-254 l43 -41 -6 30 c-4 17 -9 48 -12 70 l-5 40 25 -29 c13 -16 80 -132 148
-258 68 -125 126 -228 131 -228 4 0 7 17 8 38 1 68 44 342 54 343 16 3 78
-111 157 -288 40 -90 76 -163 79 -163 3 0 16 60 28 133 26 155 29 167 42 167
23 0 106 -215 185 -475 l28 -90 13 80 c30 175 0 493 -67 706 -35 113 -25 125
40 52 83 -95 174 -326 194 -493 10 -77 38 -182 47 -173 11 12 76 334 90 451
15 119 4 239 -30 337 -12 32 -17 63 -13 67 22 22 191 -170 271 -307 l39 -66 6
38 c14 95 17 214 6 278 -18 119 -85 319 -162 488 -17 37 -28 70 -25 73 12 13
66 -38 147 -141 l85 -106 3 55 c4 83 -13 161 -59 256 -60 127 -141 241 -247
352 -52 54 -93 101 -90 104 15 14 163 -75 237 -142 23 -20 44 -34 47 -31 8 8
-83 184 -144 277 -31 47 -99 129 -151 183 -52 53 -92 100 -89 103 4 3 20 -2
37 -11 43 -21 40 -7 -15 78 -254 393 -664 638 -1174 702 -74 10 -137 19 -139
21 -25 23 204 31 412 14 87 -7 160 -10 163 -7 9 9 -209 114 -291 140 -279 87
-571 99 -940 37 -66 -11 -121 -20 -122 -20 -2 0 -3 4 -3 10 0 12 80 36 184 55
95 18 383 45 476 45 36 0 75 3 88 6 33 9 13 28 -80 75 -250 126 -568 104 -934
-64 -253 -117 -504 -271 -707 -434 -121 -98 -126 -87 -28 59 126 187 317 381
529 536 139 101 139 101 121 101 -9 1 -18 -1 -20 -3z"/>
</g>
</svg>
